<mxfile host="Electron" agent="Mozilla/5.0 (Macintosh; Intel Mac OS X 10_15_7) AppleWebKit/537.36 (KHTML, like Gecko) draw.io/27.0.9 Chrome/134.0.6998.205 Electron/35.4.0 Safari/537.36" version="27.0.9">
  <diagram name="Page-1" id="KwBHb6Y-AYB1WkYi8zeE">
    <mxGraphModel dx="931" dy="859" grid="1" gridSize="10" guides="1" tooltips="1" connect="1" arrows="1" fold="1" page="1" pageScale="1" pageWidth="1100" pageHeight="850" math="0" shadow="0">
      <root>
        <mxCell id="0" />
        <mxCell id="1" parent="0" />
        <mxCell id="jdtQZo18vpEv9ATGgVn1-5" value="" style="container=1;collapsible=0;expand=0;recursiveResize=0;html=1;whiteSpace=wrap;strokeColor=#1192E8;fillColor=none;strokeWidth=1" parent="1" vertex="1">
          <mxGeometry x="30" y="30" width="1020" height="380" as="geometry" />
        </mxCell>
        <mxCell id="jdtQZo18vpEv9ATGgVn1-6" value="IBM Cloud" style="shape=rect;fillColor=none;aspect=fixed;resizable=0;labelPosition=right;verticalLabelPosition=middle;align=left;verticalAlign=middle;strokeColor=none;part=1;spacingLeft=5;fontSize=14;" parent="jdtQZo18vpEv9ATGgVn1-5" vertex="1">
          <mxGeometry width="48" height="48" relative="1" as="geometry" />
        </mxCell>
        <mxCell id="jdtQZo18vpEv9ATGgVn1-7" value="" style="fillColor=#1192E8;shape=mxgraph.ibm_cloud.ibm-cloud;strokeColor=none;dashed=0;outlineConnect=0;html=1;labelPosition=center;verticalLabelPosition=bottom;verticalAlign=top;part=1;movable=0;resizable=0;rotatable=0;" parent="jdtQZo18vpEv9ATGgVn1-6" vertex="1">
          <mxGeometry width="24" height="24" relative="1" as="geometry">
            <mxPoint x="12" y="12" as="offset" />
          </mxGeometry>
        </mxCell>
        <mxCell id="jdtQZo18vpEv9ATGgVn1-8" value="" style="shape=rect;fillColor=#1192E8;aspect=fixed;resizable=0;labelPosition=right;verticalLabelPosition=middle;align=left;verticalAlign=middle;strokeColor=none;part=1;spacingLeft=5;fontSize=14;" parent="jdtQZo18vpEv9ATGgVn1-5" vertex="1">
          <mxGeometry width="4" height="48" relative="1" as="geometry" />
        </mxCell>
        <mxCell id="jdtQZo18vpEv9ATGgVn1-9" value="" style="container=1;collapsible=0;expand=0;recursiveResize=0;html=1;whiteSpace=wrap;strokeColor=#1192E8;fillColor=none;strokeWidth=1" parent="jdtQZo18vpEv9ATGgVn1-5" vertex="1">
          <mxGeometry x="40" y="60" width="370" height="290" as="geometry" />
        </mxCell>
        <mxCell id="jdtQZo18vpEv9ATGgVn1-10" value="CIO VPC - US South" style="shape=rect;fillColor=none;aspect=fixed;resizable=0;labelPosition=right;verticalLabelPosition=middle;align=left;verticalAlign=middle;strokeColor=none;part=1;spacingLeft=5;fontSize=14;" parent="jdtQZo18vpEv9ATGgVn1-9" vertex="1">
          <mxGeometry width="48" height="48" relative="1" as="geometry" />
        </mxCell>
        <mxCell id="jdtQZo18vpEv9ATGgVn1-11" value="" style="fillColor=#1192E8;shape=mxgraph.ibm_cloud.ibm-cloud--vpc;strokeColor=none;dashed=0;outlineConnect=0;html=1;labelPosition=center;verticalLabelPosition=bottom;verticalAlign=top;part=1;movable=0;resizable=0;rotatable=0;" parent="jdtQZo18vpEv9ATGgVn1-10" vertex="1">
          <mxGeometry width="24" height="24" relative="1" as="geometry">
            <mxPoint x="12" y="12" as="offset" />
          </mxGeometry>
        </mxCell>
        <mxCell id="jdtQZo18vpEv9ATGgVn1-12" value="" style="shape=rect;fillColor=#1192E8;aspect=fixed;resizable=0;labelPosition=right;verticalLabelPosition=middle;align=left;verticalAlign=middle;strokeColor=none;part=1;spacingLeft=5;fontSize=14;" parent="jdtQZo18vpEv9ATGgVn1-9" vertex="1">
          <mxGeometry width="4" height="48" relative="1" as="geometry" />
        </mxCell>
        <mxCell id="jdtQZo18vpEv9ATGgVn1-19" value="" style="container=1;collapsible=0;expand=0;recursiveResize=0;html=1;whiteSpace=wrap;strokeColor=#1192E8;fillColor=none;strokeWidth=1" parent="jdtQZo18vpEv9ATGgVn1-9" vertex="1">
          <mxGeometry x="20" y="50" width="330" height="230" as="geometry" />
        </mxCell>
        <mxCell id="jdtQZo18vpEv9ATGgVn1-20" value="Z System" style="shape=rect;fillColor=none;aspect=fixed;resizable=0;labelPosition=right;verticalLabelPosition=middle;align=left;verticalAlign=middle;strokeColor=none;part=1;spacingLeft=5;fontSize=14;" parent="jdtQZo18vpEv9ATGgVn1-19" vertex="1">
          <mxGeometry width="48" height="48" relative="1" as="geometry" />
        </mxCell>
        <mxCell id="jdtQZo18vpEv9ATGgVn1-21" value="" style="fillColor=#1192E8;shape=mxgraph.ibm_cloud.z--systems;strokeColor=none;dashed=0;outlineConnect=0;html=1;labelPosition=center;verticalLabelPosition=bottom;verticalAlign=top;part=1;movable=0;resizable=0;rotatable=0;" parent="jdtQZo18vpEv9ATGgVn1-20" vertex="1">
          <mxGeometry width="24" height="24" relative="1" as="geometry">
            <mxPoint x="12" y="12" as="offset" />
          </mxGeometry>
        </mxCell>
        <mxCell id="jdtQZo18vpEv9ATGgVn1-22" value="" style="shape=rect;fillColor=#1192E8;aspect=fixed;resizable=0;labelPosition=right;verticalLabelPosition=middle;align=left;verticalAlign=middle;strokeColor=none;part=1;spacingLeft=5;fontSize=14;" parent="jdtQZo18vpEv9ATGgVn1-19" vertex="1">
          <mxGeometry width="4" height="48" relative="1" as="geometry" />
        </mxCell>
        <mxCell id="jdtQZo18vpEv9ATGgVn1-54" value="Accounting Warehouse" style="image;aspect=fixed;perimeter=ellipsePerimeter;html=1;align=center;shadow=0;dashed=0;fontColor=#4277BB;labelBackgroundColor=default;fontSize=12;spacingTop=3;image=img/lib/ibm/applications/enterprise_applications.svg;" parent="jdtQZo18vpEv9ATGgVn1-19" vertex="1">
          <mxGeometry x="70" y="40" width="60" height="60" as="geometry" />
        </mxCell>
        <mxCell id="jdtQZo18vpEv9ATGgVn1-69" style="edgeStyle=orthogonalEdgeStyle;rounded=0;orthogonalLoop=1;jettySize=auto;html=1;exitX=0;exitY=0.5;exitDx=0;exitDy=0;" parent="jdtQZo18vpEv9ATGgVn1-19" source="jdtQZo18vpEv9ATGgVn1-68" target="jdtQZo18vpEv9ATGgVn1-54" edge="1">
          <mxGeometry relative="1" as="geometry" />
        </mxCell>
        <mxCell id="jdtQZo18vpEv9ATGgVn1-68" value="Americas Ledger" style="image;aspect=fixed;perimeter=ellipsePerimeter;html=1;align=center;shadow=0;dashed=0;fontColor=#4277BB;labelBackgroundColor=default;fontSize=12;spacingTop=3;image=img/lib/ibm/applications/enterprise_applications.svg;" parent="jdtQZo18vpEv9ATGgVn1-19" vertex="1">
          <mxGeometry x="210" y="40" width="60" height="60" as="geometry" />
        </mxCell>
        <mxCell id="jdtQZo18vpEv9ATGgVn1-73" style="edgeStyle=orthogonalEdgeStyle;rounded=0;orthogonalLoop=1;jettySize=auto;html=1;" parent="jdtQZo18vpEv9ATGgVn1-19" source="jdtQZo18vpEv9ATGgVn1-72" target="jdtQZo18vpEv9ATGgVn1-54" edge="1">
          <mxGeometry relative="1" as="geometry">
            <Array as="points">
              <mxPoint x="10" y="160" />
              <mxPoint x="10" y="70" />
            </Array>
          </mxGeometry>
        </mxCell>
        <mxCell id="jdtQZo18vpEv9ATGgVn1-72" value="Europe Ledger" style="image;aspect=fixed;perimeter=ellipsePerimeter;html=1;align=center;shadow=0;dashed=0;fontColor=#4277BB;labelBackgroundColor=default;fontSize=12;spacingTop=3;image=img/lib/ibm/applications/enterprise_applications.svg;" parent="jdtQZo18vpEv9ATGgVn1-19" vertex="1">
          <mxGeometry x="70" y="130" width="60" height="60" as="geometry" />
        </mxCell>
        <mxCell id="jdtQZo18vpEv9ATGgVn1-75" style="edgeStyle=orthogonalEdgeStyle;rounded=0;orthogonalLoop=1;jettySize=auto;html=1;entryX=1;entryY=1;entryDx=0;entryDy=0;" parent="jdtQZo18vpEv9ATGgVn1-19" source="jdtQZo18vpEv9ATGgVn1-74" target="jdtQZo18vpEv9ATGgVn1-54" edge="1">
          <mxGeometry relative="1" as="geometry">
            <Array as="points">
              <mxPoint x="190" y="90" />
              <mxPoint x="121" y="90" />
            </Array>
          </mxGeometry>
        </mxCell>
        <mxCell id="jdtQZo18vpEv9ATGgVn1-74" value="Asia Ledger" style="image;aspect=fixed;perimeter=ellipsePerimeter;html=1;align=center;shadow=0;dashed=0;fontColor=#4277BB;labelBackgroundColor=default;fontSize=12;spacingTop=3;image=img/lib/ibm/applications/enterprise_applications.svg;" parent="jdtQZo18vpEv9ATGgVn1-19" vertex="1">
          <mxGeometry x="160" y="130" width="60" height="60" as="geometry" />
        </mxCell>
        <mxCell id="jdtQZo18vpEv9ATGgVn1-46" value="" style="container=1;collapsible=0;expand=0;recursiveResize=0;html=1;whiteSpace=wrap;strokeColor=#1192E8;fillColor=none;strokeWidth=1" parent="jdtQZo18vpEv9ATGgVn1-5" vertex="1">
          <mxGeometry x="450" y="60" width="370" height="290" as="geometry" />
        </mxCell>
        <mxCell id="jdtQZo18vpEv9ATGgVn1-47" value="CIO VPC - US East" style="shape=rect;fillColor=none;aspect=fixed;resizable=0;labelPosition=right;verticalLabelPosition=middle;align=left;verticalAlign=middle;strokeColor=none;part=1;spacingLeft=5;fontSize=14;" parent="jdtQZo18vpEv9ATGgVn1-46" vertex="1">
          <mxGeometry width="48" height="48" relative="1" as="geometry" />
        </mxCell>
        <mxCell id="jdtQZo18vpEv9ATGgVn1-48" value="" style="fillColor=#1192E8;shape=mxgraph.ibm_cloud.ibm-cloud--vpc;strokeColor=none;dashed=0;outlineConnect=0;html=1;labelPosition=center;verticalLabelPosition=bottom;verticalAlign=top;part=1;movable=0;resizable=0;rotatable=0;" parent="jdtQZo18vpEv9ATGgVn1-47" vertex="1">
          <mxGeometry width="24" height="24" relative="1" as="geometry">
            <mxPoint x="12" y="12" as="offset" />
          </mxGeometry>
        </mxCell>
        <mxCell id="jdtQZo18vpEv9ATGgVn1-49" value="" style="shape=rect;fillColor=#1192E8;aspect=fixed;resizable=0;labelPosition=right;verticalLabelPosition=middle;align=left;verticalAlign=middle;strokeColor=none;part=1;spacingLeft=5;fontSize=14;" parent="jdtQZo18vpEv9ATGgVn1-46" vertex="1">
          <mxGeometry width="4" height="48" relative="1" as="geometry" />
        </mxCell>
        <mxCell id="jdtQZo18vpEv9ATGgVn1-50" value="" style="container=1;collapsible=0;expand=0;recursiveResize=0;html=1;whiteSpace=wrap;strokeColor=#1192E8;fillColor=none;strokeWidth=1" parent="jdtQZo18vpEv9ATGgVn1-46" vertex="1">
          <mxGeometry x="75" y="95" width="220" height="140" as="geometry" />
        </mxCell>
        <mxCell id="jdtQZo18vpEv9ATGgVn1-51" value="Z System" style="shape=rect;fillColor=none;aspect=fixed;resizable=0;labelPosition=right;verticalLabelPosition=middle;align=left;verticalAlign=middle;strokeColor=none;part=1;spacingLeft=5;fontSize=14;" parent="jdtQZo18vpEv9ATGgVn1-50" vertex="1">
          <mxGeometry width="48" height="48" relative="1" as="geometry" />
        </mxCell>
        <mxCell id="jdtQZo18vpEv9ATGgVn1-52" value="" style="fillColor=#1192E8;shape=mxgraph.ibm_cloud.z--systems;strokeColor=none;dashed=0;outlineConnect=0;html=1;labelPosition=center;verticalLabelPosition=bottom;verticalAlign=top;part=1;movable=0;resizable=0;rotatable=0;" parent="jdtQZo18vpEv9ATGgVn1-51" vertex="1">
          <mxGeometry width="24" height="24" relative="1" as="geometry">
            <mxPoint x="12" y="12" as="offset" />
          </mxGeometry>
        </mxCell>
        <mxCell id="jdtQZo18vpEv9ATGgVn1-53" value="" style="shape=rect;fillColor=#1192E8;aspect=fixed;resizable=0;labelPosition=right;verticalLabelPosition=middle;align=left;verticalAlign=middle;strokeColor=none;part=1;spacingLeft=5;fontSize=14;" parent="jdtQZo18vpEv9ATGgVn1-50" vertex="1">
          <mxGeometry width="4" height="48" relative="1" as="geometry" />
        </mxCell>
        <mxCell id="jdtQZo18vpEv9ATGgVn1-55" value="Global Mirror" style="edgeStyle=orthogonalEdgeStyle;rounded=0;orthogonalLoop=1;jettySize=auto;html=1;entryX=0;entryY=0.5;entryDx=0;entryDy=0;strokeWidth=4;fillColor=#f8cecc;strokeColor=#b85450;" parent="jdtQZo18vpEv9ATGgVn1-5" source="jdtQZo18vpEv9ATGgVn1-19" target="jdtQZo18vpEv9ATGgVn1-50" edge="1">
          <mxGeometry x="0.0526" y="15" relative="1" as="geometry">
            <mxPoint as="offset" />
          </mxGeometry>
        </mxCell>
        <mxCell id="jdtQZo18vpEv9ATGgVn1-15" value="" style="container=1;collapsible=0;expand=0;recursiveResize=0;html=1;whiteSpace=wrap;strokeColor=#1192E8;fillColor=none;strokeWidth=1" parent="1" vertex="1">
          <mxGeometry x="30" y="480" width="880" height="290" as="geometry" />
        </mxCell>
        <mxCell id="jdtQZo18vpEv9ATGgVn1-16" value="Enterprise Network" style="shape=rect;fillColor=none;aspect=fixed;resizable=0;labelPosition=right;verticalLabelPosition=middle;align=left;verticalAlign=middle;strokeColor=none;part=1;spacingLeft=5;fontSize=14;" parent="jdtQZo18vpEv9ATGgVn1-15" vertex="1">
          <mxGeometry width="48" height="48" relative="1" as="geometry" />
        </mxCell>
        <mxCell id="jdtQZo18vpEv9ATGgVn1-17" value="" style="fillColor=#1192E8;shape=mxgraph.ibm_cloud.network--enterprise;strokeColor=none;dashed=0;outlineConnect=0;html=1;labelPosition=center;verticalLabelPosition=bottom;verticalAlign=top;part=1;movable=0;resizable=0;rotatable=0;" parent="jdtQZo18vpEv9ATGgVn1-16" vertex="1">
          <mxGeometry width="24" height="24" relative="1" as="geometry">
            <mxPoint x="12" y="12" as="offset" />
          </mxGeometry>
        </mxCell>
        <mxCell id="jdtQZo18vpEv9ATGgVn1-18" value="" style="shape=rect;fillColor=#1192E8;aspect=fixed;resizable=0;labelPosition=right;verticalLabelPosition=middle;align=left;verticalAlign=middle;strokeColor=none;part=1;spacingLeft=5;fontSize=14;" parent="jdtQZo18vpEv9ATGgVn1-15" vertex="1">
          <mxGeometry width="4" height="48" relative="1" as="geometry" />
        </mxCell>
        <mxCell id="jdtQZo18vpEv9ATGgVn1-23" value="" style="container=1;collapsible=0;expand=0;recursiveResize=0;html=1;whiteSpace=wrap;strokeColor=#1192E8;fillColor=none;strokeWidth=1" parent="jdtQZo18vpEv9ATGgVn1-15" vertex="1">
          <mxGeometry x="30" y="70" width="290" height="140" as="geometry" />
        </mxCell>
        <mxCell id="jdtQZo18vpEv9ATGgVn1-24" value="Z System - Northeast" style="shape=rect;fillColor=none;aspect=fixed;resizable=0;labelPosition=right;verticalLabelPosition=middle;align=left;verticalAlign=middle;strokeColor=none;part=1;spacingLeft=5;fontSize=14;" parent="jdtQZo18vpEv9ATGgVn1-23" vertex="1">
          <mxGeometry width="48" height="48" relative="1" as="geometry" />
        </mxCell>
        <mxCell id="jdtQZo18vpEv9ATGgVn1-25" value="" style="fillColor=#1192E8;shape=mxgraph.ibm_cloud.z--systems;strokeColor=none;dashed=0;outlineConnect=0;html=1;labelPosition=center;verticalLabelPosition=bottom;verticalAlign=top;part=1;movable=0;resizable=0;rotatable=0;" parent="jdtQZo18vpEv9ATGgVn1-24" vertex="1">
          <mxGeometry width="24" height="24" relative="1" as="geometry">
            <mxPoint x="12" y="12" as="offset" />
          </mxGeometry>
        </mxCell>
        <mxCell id="jdtQZo18vpEv9ATGgVn1-26" value="" style="shape=rect;fillColor=#1192E8;aspect=fixed;resizable=0;labelPosition=right;verticalLabelPosition=middle;align=left;verticalAlign=middle;strokeColor=none;part=1;spacingLeft=5;fontSize=14;" parent="jdtQZo18vpEv9ATGgVn1-23" vertex="1">
          <mxGeometry width="4" height="48" relative="1" as="geometry" />
        </mxCell>
        <mxCell id="jdtQZo18vpEv9ATGgVn1-39" value="Accounting Warehouse" style="image;aspect=fixed;perimeter=ellipsePerimeter;html=1;align=center;shadow=0;dashed=0;fontColor=#4277BB;labelBackgroundColor=default;fontSize=12;spacingTop=3;image=img/lib/ibm/applications/enterprise_applications.svg;" parent="jdtQZo18vpEv9ATGgVn1-23" vertex="1">
          <mxGeometry x="40" y="50" width="60" height="60" as="geometry" />
        </mxCell>
        <mxCell id="jdtQZo18vpEv9ATGgVn1-43" style="edgeStyle=orthogonalEdgeStyle;rounded=0;orthogonalLoop=1;jettySize=auto;html=1;entryX=1;entryY=0.5;entryDx=0;entryDy=0;" parent="jdtQZo18vpEv9ATGgVn1-23" source="jdtQZo18vpEv9ATGgVn1-40" target="jdtQZo18vpEv9ATGgVn1-39" edge="1">
          <mxGeometry relative="1" as="geometry" />
        </mxCell>
        <mxCell id="jdtQZo18vpEv9ATGgVn1-40" value="Americas Ledger" style="image;aspect=fixed;perimeter=ellipsePerimeter;html=1;align=center;shadow=0;dashed=0;fontColor=#4277BB;labelBackgroundColor=default;fontSize=12;spacingTop=3;image=img/lib/ibm/applications/enterprise_applications.svg;" parent="jdtQZo18vpEv9ATGgVn1-23" vertex="1">
          <mxGeometry x="180" y="50" width="60" height="60" as="geometry" />
        </mxCell>
        <mxCell id="jdtQZo18vpEv9ATGgVn1-60" value="" style="html=1;verticalLabelPosition=bottom;labelBackgroundColor=#ffffff;verticalAlign=top;shadow=0;dashed=0;strokeWidth=2;shape=mxgraph.ios7.misc.star;fillColor=#0080f0;strokeColor=none;sketch=0;aspect=fixed;" parent="jdtQZo18vpEv9ATGgVn1-23" vertex="1">
          <mxGeometry x="80" y="50" width="20" height="20" as="geometry" />
        </mxCell>
        <mxCell id="jdtQZo18vpEv9ATGgVn1-61" value="" style="ellipse;whiteSpace=wrap;html=1;aspect=fixed;fillColor=light-dark(#0080f0, #ededed);" parent="jdtQZo18vpEv9ATGgVn1-23" vertex="1">
          <mxGeometry x="222" y="51" width="18" height="18" as="geometry" />
        </mxCell>
        <mxCell id="2OqADeeZlM_eTds4O5eJ-1" value="" style="shape=mxgraph.mockup.markup.redX;fillColor=#ff0000;html=1;shadow=0;whiteSpace=wrap;strokeColor=none;" vertex="1" parent="jdtQZo18vpEv9ATGgVn1-23">
          <mxGeometry x="180" y="65" width="60" height="30" as="geometry" />
        </mxCell>
        <mxCell id="jdtQZo18vpEv9ATGgVn1-31" value="" style="container=1;collapsible=0;expand=0;recursiveResize=0;html=1;whiteSpace=wrap;strokeColor=#1192E8;fillColor=none;strokeWidth=1" parent="jdtQZo18vpEv9ATGgVn1-15" vertex="1">
          <mxGeometry x="340" y="70" width="220" height="140" as="geometry" />
        </mxCell>
        <mxCell id="jdtQZo18vpEv9ATGgVn1-32" value="Z System - Europe" style="shape=rect;fillColor=none;aspect=fixed;resizable=0;labelPosition=right;verticalLabelPosition=middle;align=left;verticalAlign=middle;strokeColor=none;part=1;spacingLeft=5;fontSize=14;" parent="jdtQZo18vpEv9ATGgVn1-31" vertex="1">
          <mxGeometry width="48" height="48" relative="1" as="geometry" />
        </mxCell>
        <mxCell id="jdtQZo18vpEv9ATGgVn1-33" value="" style="fillColor=#1192E8;shape=mxgraph.ibm_cloud.z--systems;strokeColor=none;dashed=0;outlineConnect=0;html=1;labelPosition=center;verticalLabelPosition=bottom;verticalAlign=top;part=1;movable=0;resizable=0;rotatable=0;" parent="jdtQZo18vpEv9ATGgVn1-32" vertex="1">
          <mxGeometry width="24" height="24" relative="1" as="geometry">
            <mxPoint x="12" y="12" as="offset" />
          </mxGeometry>
        </mxCell>
        <mxCell id="jdtQZo18vpEv9ATGgVn1-34" value="" style="shape=rect;fillColor=#1192E8;aspect=fixed;resizable=0;labelPosition=right;verticalLabelPosition=middle;align=left;verticalAlign=middle;strokeColor=none;part=1;spacingLeft=5;fontSize=14;" parent="jdtQZo18vpEv9ATGgVn1-31" vertex="1">
          <mxGeometry width="4" height="48" relative="1" as="geometry" />
        </mxCell>
        <mxCell id="jdtQZo18vpEv9ATGgVn1-41" value="Europe Ledger" style="image;aspect=fixed;perimeter=ellipsePerimeter;html=1;align=center;shadow=0;dashed=0;fontColor=#4277BB;labelBackgroundColor=default;fontSize=12;spacingTop=3;image=img/lib/ibm/applications/enterprise_applications.svg;" parent="jdtQZo18vpEv9ATGgVn1-31" vertex="1">
          <mxGeometry x="70" y="50" width="60" height="60" as="geometry" />
        </mxCell>
        <mxCell id="jdtQZo18vpEv9ATGgVn1-63" value="" style="ellipse;whiteSpace=wrap;html=1;aspect=fixed;fillColor=light-dark(#0080f0, #ededed);" parent="jdtQZo18vpEv9ATGgVn1-31" vertex="1">
          <mxGeometry x="112" y="50" width="18" height="18" as="geometry" />
        </mxCell>
        <mxCell id="2OqADeeZlM_eTds4O5eJ-2" value="" style="shape=mxgraph.mockup.markup.redX;fillColor=#ff0000;html=1;shadow=0;whiteSpace=wrap;strokeColor=none;" vertex="1" parent="jdtQZo18vpEv9ATGgVn1-31">
          <mxGeometry x="70" y="65" width="60" height="30" as="geometry" />
        </mxCell>
        <mxCell id="jdtQZo18vpEv9ATGgVn1-35" value="" style="container=1;collapsible=0;expand=0;recursiveResize=0;html=1;whiteSpace=wrap;strokeColor=#1192E8;fillColor=none;strokeWidth=1" parent="jdtQZo18vpEv9ATGgVn1-15" vertex="1">
          <mxGeometry x="580" y="70" width="220" height="140" as="geometry" />
        </mxCell>
        <mxCell id="jdtQZo18vpEv9ATGgVn1-36" value="Z System - APAC" style="shape=rect;fillColor=none;aspect=fixed;resizable=0;labelPosition=right;verticalLabelPosition=middle;align=left;verticalAlign=middle;strokeColor=none;part=1;spacingLeft=5;fontSize=14;" parent="jdtQZo18vpEv9ATGgVn1-35" vertex="1">
          <mxGeometry width="48" height="48" relative="1" as="geometry" />
        </mxCell>
        <mxCell id="jdtQZo18vpEv9ATGgVn1-37" value="" style="fillColor=#1192E8;shape=mxgraph.ibm_cloud.z--systems;strokeColor=none;dashed=0;outlineConnect=0;html=1;labelPosition=center;verticalLabelPosition=bottom;verticalAlign=top;part=1;movable=0;resizable=0;rotatable=0;" parent="jdtQZo18vpEv9ATGgVn1-36" vertex="1">
          <mxGeometry width="24" height="24" relative="1" as="geometry">
            <mxPoint x="12" y="12" as="offset" />
          </mxGeometry>
        </mxCell>
        <mxCell id="jdtQZo18vpEv9ATGgVn1-38" value="" style="shape=rect;fillColor=#1192E8;aspect=fixed;resizable=0;labelPosition=right;verticalLabelPosition=middle;align=left;verticalAlign=middle;strokeColor=none;part=1;spacingLeft=5;fontSize=14;" parent="jdtQZo18vpEv9ATGgVn1-35" vertex="1">
          <mxGeometry width="4" height="48" relative="1" as="geometry" />
        </mxCell>
        <mxCell id="jdtQZo18vpEv9ATGgVn1-42" value="Asia Ledger" style="image;aspect=fixed;perimeter=ellipsePerimeter;html=1;align=center;shadow=0;dashed=0;fontColor=#4277BB;labelBackgroundColor=default;fontSize=12;spacingTop=3;image=img/lib/ibm/applications/enterprise_applications.svg;" parent="jdtQZo18vpEv9ATGgVn1-35" vertex="1">
          <mxGeometry x="90" y="50" width="60" height="60" as="geometry" />
        </mxCell>
        <mxCell id="jdtQZo18vpEv9ATGgVn1-64" value="" style="ellipse;whiteSpace=wrap;html=1;aspect=fixed;fillColor=light-dark(#0080f0, #ededed);" parent="jdtQZo18vpEv9ATGgVn1-35" vertex="1">
          <mxGeometry x="132" y="50" width="18" height="18" as="geometry" />
        </mxCell>
        <mxCell id="2OqADeeZlM_eTds4O5eJ-3" value="" style="shape=mxgraph.mockup.markup.redX;fillColor=#ff0000;html=1;shadow=0;whiteSpace=wrap;strokeColor=none;" vertex="1" parent="jdtQZo18vpEv9ATGgVn1-35">
          <mxGeometry x="90" y="65" width="60" height="30" as="geometry" />
        </mxCell>
        <mxCell id="jdtQZo18vpEv9ATGgVn1-44" style="edgeStyle=orthogonalEdgeStyle;rounded=0;orthogonalLoop=1;jettySize=auto;html=1;" parent="jdtQZo18vpEv9ATGgVn1-15" source="jdtQZo18vpEv9ATGgVn1-41" target="jdtQZo18vpEv9ATGgVn1-39" edge="1">
          <mxGeometry relative="1" as="geometry">
            <Array as="points">
              <mxPoint x="440" y="270" />
              <mxPoint x="100" y="270" />
            </Array>
          </mxGeometry>
        </mxCell>
        <mxCell id="jdtQZo18vpEv9ATGgVn1-45" style="edgeStyle=orthogonalEdgeStyle;rounded=0;orthogonalLoop=1;jettySize=auto;html=1;" parent="jdtQZo18vpEv9ATGgVn1-15" source="jdtQZo18vpEv9ATGgVn1-42" target="jdtQZo18vpEv9ATGgVn1-39" edge="1">
          <mxGeometry relative="1" as="geometry">
            <Array as="points">
              <mxPoint x="700" y="270" />
              <mxPoint x="100" y="270" />
            </Array>
          </mxGeometry>
        </mxCell>
        <mxCell id="jdtQZo18vpEv9ATGgVn1-65" value="" style="html=1;verticalLabelPosition=bottom;labelBackgroundColor=#ffffff;verticalAlign=top;shadow=0;dashed=0;strokeWidth=2;shape=mxgraph.ios7.misc.star;fillColor=#0080f0;strokeColor=none;sketch=0;aspect=fixed;" parent="1" vertex="1">
          <mxGeometry x="40" y="790" width="20" height="20" as="geometry" />
        </mxCell>
        <mxCell id="jdtQZo18vpEv9ATGgVn1-66" value="&lt;b&gt;Cloned&lt;/b&gt; to new VPC. Original remains for divestiture company&#39;s use." style="text;html=1;align=left;verticalAlign=middle;whiteSpace=wrap;rounded=0;" parent="1" vertex="1">
          <mxGeometry x="60" y="785" width="380" height="30" as="geometry" />
        </mxCell>
        <mxCell id="jdtQZo18vpEv9ATGgVn1-56" style="edgeStyle=orthogonalEdgeStyle;rounded=0;orthogonalLoop=1;jettySize=auto;html=1;dashed=1;dashPattern=12 12;" parent="1" source="jdtQZo18vpEv9ATGgVn1-68" target="jdtQZo18vpEv9ATGgVn1-39" edge="1">
          <mxGeometry relative="1" as="geometry">
            <Array as="points">
              <mxPoint x="330" y="450" />
              <mxPoint x="130" y="450" />
            </Array>
          </mxGeometry>
        </mxCell>
        <mxCell id="jdtQZo18vpEv9ATGgVn1-70" value="" style="ellipse;whiteSpace=wrap;html=1;aspect=fixed;fillColor=light-dark(#0080f0, #ededed);" parent="1" vertex="1">
          <mxGeometry x="40" y="816" width="18" height="18" as="geometry" />
        </mxCell>
        <mxCell id="jdtQZo18vpEv9ATGgVn1-71" value="&lt;b&gt;Moved&lt;/b&gt; to new VPC. Logical data segregation between company and divestiture. Original is destroyed." style="text;html=1;align=left;verticalAlign=middle;whiteSpace=wrap;rounded=0;" parent="1" vertex="1">
          <mxGeometry x="60" y="810" width="610" height="30" as="geometry" />
        </mxCell>
        <mxCell id="jdtQZo18vpEv9ATGgVn1-76" style="edgeStyle=orthogonalEdgeStyle;rounded=0;orthogonalLoop=1;jettySize=auto;html=1;dashed=1;dashPattern=12 12;entryX=0.5;entryY=0;entryDx=0;entryDy=0;" parent="1" source="jdtQZo18vpEv9ATGgVn1-72" target="jdtQZo18vpEv9ATGgVn1-39" edge="1">
          <mxGeometry relative="1" as="geometry">
            <mxPoint x="340" y="250" as="sourcePoint" />
            <mxPoint x="140" y="610" as="targetPoint" />
            <Array as="points">
              <mxPoint x="190" y="450" />
              <mxPoint x="130" y="450" />
            </Array>
          </mxGeometry>
        </mxCell>
        <mxCell id="jdtQZo18vpEv9ATGgVn1-77" style="edgeStyle=orthogonalEdgeStyle;rounded=0;orthogonalLoop=1;jettySize=auto;html=1;dashed=1;dashPattern=12 12;exitX=0.5;exitY=1;exitDx=0;exitDy=0;" parent="1" source="jdtQZo18vpEv9ATGgVn1-74" target="jdtQZo18vpEv9ATGgVn1-39" edge="1">
          <mxGeometry relative="1" as="geometry">
            <mxPoint x="340" y="250" as="sourcePoint" />
            <mxPoint x="140" y="610" as="targetPoint" />
            <Array as="points">
              <mxPoint x="280" y="450" />
              <mxPoint x="130" y="450" />
            </Array>
          </mxGeometry>
        </mxCell>
      </root>
    </mxGraphModel>
  </diagram>
</mxfile>
